<svg width="10" height="10" viewBox="0 0 10 10" fill="none" xmlns="http://www.w3.org/2000/svg">
<path d="M4.99563 2.34413C4.47015 2.34403 3.95645 2.49976 3.51948 2.79163C3.08252 3.08349 2.74192 3.49838 2.54076 3.98383C2.3396 4.46927 2.28691 5.00347 2.38937 5.51886C2.49182 6.03425 2.74481 6.50768 3.11634 6.87928C3.48786 7.25089 3.96125 7.50397 4.47662 7.60652C4.99199 7.70908 5.5262 7.6565 6.01168 7.45544C6.49717 7.25438 6.91213 6.91386 7.20408 6.47696C7.49604 6.04005 7.65187 5.52638 7.65188 5.00091C7.65115 4.2966 7.37108 3.62135 6.87311 3.12328C6.37514 2.62521 5.69993 2.345 4.99563 2.34413Z" fill="#D69C59"/>
<path d="M9.21879 4.5321H8.59432C8.46998 4.5321 8.35073 4.5815 8.2628 4.66942C8.17488 4.75734 8.12549 4.87659 8.12549 5.00093C8.12549 5.12527 8.17488 5.24452 8.2628 5.33244C8.35073 5.42037 8.46998 5.46976 8.59432 5.46976H9.21879C9.34313 5.46976 9.46238 5.42037 9.5503 5.33244C9.63822 5.24452 9.68762 5.12527 9.68762 5.00093C9.68762 4.87659 9.63822 4.75734 9.5503 4.66942C9.46238 4.5815 9.34313 4.5321 9.21879 4.5321Z" fill="#D69C59"/>
<path d="M4.99587 8.12477C4.87161 8.12496 4.7525 8.17442 4.66467 8.26231C4.57684 8.3502 4.52745 8.46934 4.52734 8.59359V9.21867C4.52734 9.34292 4.5767 9.46208 4.66456 9.54994C4.75242 9.6378 4.87158 9.68715 4.99583 9.68715C5.12008 9.68715 5.23924 9.6378 5.32709 9.54994C5.41495 9.46208 5.46431 9.34292 5.46431 9.21867V8.59359C5.46422 8.46935 5.41485 8.35021 5.32703 8.26232C5.23921 8.17443 5.12011 8.12496 4.99587 8.12477Z" fill="#D69C59"/>
<path d="M1.87375 5.00093C1.87364 4.87668 1.82425 4.75754 1.73642 4.66965C1.64859 4.58176 1.52948 4.53229 1.40523 4.5321H0.780839C0.656498 4.5321 0.53725 4.5815 0.449328 4.66942C0.361406 4.75734 0.312012 4.87659 0.312012 5.00093C0.312012 5.12527 0.361406 5.24452 0.449328 5.33244C0.53725 5.42037 0.656498 5.46976 0.780839 5.46976H1.40523C1.52948 5.46957 1.64859 5.42011 1.73642 5.33222C1.82426 5.24433 1.87364 5.12519 1.87375 5.00093Z" fill="#D69C59"/>
<path d="M4.99579 1.87523C5.12004 1.87505 5.23915 1.82558 5.32698 1.73769C5.41481 1.6498 5.4642 1.53067 5.46431 1.40641V0.781333C5.46431 0.657084 5.41495 0.537924 5.32709 0.450066C5.23924 0.362209 5.12008 0.312851 4.99583 0.312851C4.87158 0.312851 4.75242 0.362209 4.66456 0.450066C4.5767 0.537924 4.52734 0.657084 4.52734 0.781333V1.40641C4.52743 1.53066 4.57681 1.64979 4.66463 1.73768C4.75245 1.82558 4.87154 1.87504 4.99579 1.87523Z" fill="#D69C59"/>
<path d="M7.86876 2.79051L8.31074 2.34852C8.35439 2.30505 8.38903 2.2534 8.41269 2.19652C8.43634 2.13964 8.44855 2.07866 8.44861 2.01706C8.44868 1.95546 8.43659 1.89445 8.41304 1.83753C8.3895 1.78061 8.35496 1.72889 8.3114 1.68533C8.26785 1.64177 8.21613 1.60723 8.1592 1.58369C8.10228 1.56014 8.04128 1.54805 7.97968 1.54811C7.91808 1.54817 7.8571 1.56038 7.80022 1.58404C7.74335 1.60769 7.69169 1.64234 7.64822 1.68598L7.20622 2.12798C7.16258 2.17145 7.12794 2.22311 7.10428 2.27998C7.08063 2.33686 7.06842 2.39784 7.06836 2.45944C7.0683 2.52104 7.08039 2.58205 7.10393 2.63897C7.12748 2.69589 7.16202 2.74761 7.20558 2.79117C7.24913 2.83473 7.30085 2.86927 7.35778 2.89281C7.4147 2.91636 7.4757 2.92845 7.5373 2.92838C7.5989 2.92832 7.65988 2.91611 7.71676 2.89246C7.77363 2.8688 7.82529 2.83416 7.86876 2.79051Z" fill="#D69C59"/>
<path d="M7.86868 7.21138C7.82521 7.16775 7.77356 7.13312 7.71669 7.10948C7.65981 7.08583 7.59884 7.07363 7.53725 7.07358C7.47566 7.07352 7.41466 7.08562 7.35775 7.10916C7.30084 7.13271 7.24912 7.16724 7.20557 7.2108C7.16202 7.25435 7.12749 7.30606 7.10394 7.36297C7.0804 7.41989 7.06831 7.48089 7.06836 7.54248C7.06841 7.60407 7.08061 7.66505 7.10426 7.72192C7.1279 7.77879 7.16253 7.83045 7.20615 7.87392L7.64815 8.31592C7.69162 8.35955 7.74327 8.39417 7.80014 8.41782C7.85701 8.44147 7.91799 8.45366 7.97958 8.45372C8.04117 8.45377 8.10217 8.44168 8.15908 8.41814C8.21599 8.39459 8.2677 8.36005 8.31125 8.3165C8.3548 8.27295 8.38934 8.22124 8.41289 8.16432C8.43643 8.10741 8.44852 8.04641 8.44847 7.98482C8.44841 7.92322 8.43622 7.86225 8.41257 7.80537C8.38893 7.7485 8.3543 7.69685 8.31067 7.65337L7.86868 7.21138Z" fill="#D69C59"/>
<path d="M2.1229 7.21132L1.6809 7.65333C1.63725 7.6968 1.60259 7.74845 1.57892 7.80533C1.55525 7.86221 1.54304 7.9232 1.54297 7.98481C1.5429 8.04641 1.55499 8.10743 1.57853 8.16436C1.60208 8.22129 1.63662 8.27302 1.68018 8.31659C1.72375 8.36015 1.77547 8.39469 1.8324 8.41824C1.88934 8.44178 1.95035 8.45387 2.01196 8.4538C2.07356 8.45373 2.13455 8.44152 2.19143 8.41785C2.24831 8.39418 2.29997 8.35952 2.34343 8.31587L2.78544 7.87387C2.82906 7.83039 2.86369 7.77874 2.88734 7.72187C2.91098 7.66499 2.92318 7.60401 2.92323 7.54242C2.92329 7.48083 2.9112 7.41983 2.88765 7.36292C2.86411 7.306 2.82957 7.25429 2.78602 7.21074C2.74247 7.16718 2.69075 7.13265 2.63384 7.1091C2.57693 7.08555 2.51593 7.07346 2.45434 7.07352C2.39274 7.07357 2.33177 7.08577 2.2749 7.10941C2.21802 7.13306 2.16637 7.16769 2.1229 7.21132Z" fill="#D69C59"/>
<path d="M2.12311 2.79045C2.1666 2.83402 2.21825 2.86858 2.2751 2.89217C2.33196 2.91577 2.3929 2.92792 2.45446 2.92795C2.51601 2.92798 2.57697 2.91587 2.63385 2.89233C2.69072 2.86878 2.7424 2.83426 2.78593 2.79073C2.82945 2.74721 2.86397 2.69553 2.88752 2.63865C2.91106 2.58178 2.92317 2.52082 2.92314 2.45927C2.92311 2.39771 2.91096 2.33676 2.88737 2.27991C2.86377 2.22305 2.82921 2.17141 2.78564 2.12792L2.34364 1.68592C2.30018 1.64221 2.24853 1.60752 2.19164 1.58381C2.13475 1.56011 2.07374 1.54786 2.0121 1.54778C1.95047 1.54769 1.88943 1.55977 1.83247 1.58331C1.77551 1.60686 1.72376 1.64141 1.68018 1.68499C1.6366 1.72857 1.60205 1.78033 1.5785 1.83728C1.55496 1.89424 1.54288 1.95528 1.54297 2.01692C1.54306 2.07855 1.5553 2.13956 1.57901 2.19645C1.60271 2.25334 1.63741 2.30499 1.68111 2.34845L2.12311 2.79045Z" fill="#D69C59"/>
</svg>
