<svg width="32" height="33" viewBox="0 0 32 33" fill="none" xmlns="http://www.w3.org/2000/svg">
<path opacity="0.3" d="M15.9998 3.16667C2.50649 11.8067 -0.000176907 26.3667 15.9998 29.8333C31.9998 26.3667 29.4932 11.8067 15.9998 3.16667Z" fill="#0EA5EA"/>
<path d="M15.9999 29.8333L27.0799 18.7533C27.2533 23.7667 23.8666 28.14 15.9999 29.8333ZM25.7066 13.46C24.9877 12.0003 24.0921 10.6345 23.0399 9.39333L15.9999 16.5V23.1667L25.7066 13.46ZM12.1866 6.02C10.9924 7.04607 9.89037 8.17483 8.89326 9.39333L15.9999 16.5V9.83333L12.1866 6.02ZM15.9999 3.16667V9.83333L19.8133 6.02C18.615 4.97522 17.3403 4.02145 15.9999 3.16667ZM4.91992 18.7533L15.9999 29.8333V23.1667L6.29325 13.46C5.47467 15.1106 5.00706 16.913 4.91992 18.7533Z" fill="#0EA5EA"/>
</svg>
