<svg width="8" height="8" viewBox="0 0 8 8" fill="none" xmlns="http://www.w3.org/2000/svg">
<path d="M6.91762 6.81373C7.46725 6.2641 7.8258 5.59583 7.99343 4.89135C8.04144 4.68955 7.79344 4.55332 7.64713 4.70035C7.64534 4.70216 7.64354 4.70396 7.64175 4.70575C6.41887 5.92863 4.42153 5.90505 3.22851 4.63503C2.10376 3.43767 2.11853 1.57878 3.26069 0.398029C3.2751 0.383142 3.28961 0.368431 3.30424 0.353896C3.45095 0.208144 3.31382 -0.0387274 3.11263 0.00908554C2.41441 0.175016 1.7517 0.528447 1.20476 1.06956C-0.394422 2.65173 -0.403429 5.2169 1.18509 6.80974C2.76665 8.39564 5.33439 8.39695 6.91762 6.81373Z" fill="#0EA5EA"/>
</svg>
