<svg width="16" height="16" viewBox="0 0 16 16" fill="none" xmlns="http://www.w3.org/2000/svg">
<path opacity="0.4" d="M8.66667 2.16667H4.66667C2.38667 2.16667 1.5 3.05333 1.5 5.33333V10.6667C1.5 12.2 2.33333 13.8333 4.66667 13.8333H8.66667C10.9467 13.8333 11.8333 12.9467 11.8333 10.6667V5.33333C11.8333 3.05333 10.9467 2.16667 8.66667 2.16667Z" fill="#0EA5EA"/>
<path d="M7.66691 7.58666C8.3591 7.58666 8.92024 7.02553 8.92024 6.33333C8.92024 5.64113 8.3591 5.08 7.66691 5.08C6.97471 5.08 6.41357 5.64113 6.41357 6.33333C6.41357 7.02553 6.97471 7.58666 7.66691 7.58666Z" fill="#0EA5EA"/>
<path d="M14.4332 4.11334C14.1598 3.97334 13.5865 3.81334 12.8065 4.36L11.8198 5.05334C11.8265 5.14667 11.8332 5.23334 11.8332 5.33334V10.6667C11.8332 10.7667 11.8198 10.8533 11.8198 10.9467L12.8065 11.64C13.2198 11.9333 13.5798 12.0267 13.8665 12.0267C14.1132 12.0267 14.3065 11.96 14.4332 11.8933C14.7065 11.7533 15.1665 11.3733 15.1665 10.42V5.58667C15.1665 4.63334 14.7065 4.25334 14.4332 4.11334Z" fill="#0EA5EA"/>
</svg>
